<?xml version="1.0" encoding="UTF-8"?>
<svg width="32px" height="32px" viewBox="0 0 32 32" version="1.1" xmlns="http://www.w3.org/2000/svg">
    <title>EmpateCerca Logo</title>
    <g stroke="none" stroke-width="1" fill="none" fill-rule="evenodd">
        <circle fill="#22C55E" cx="16" cy="16" r="16"/>
        <path d="M16,7 C19.866,7 23,10.134 23,14 C23,17.866 19.866,21 16,21 C12.134,21 9,17.866 9,14 C9,10.134 12.134,7 16,7 Z M16,9 C13.239,9 11,11.239 11,14 C11,16.761 13.239,19 16,19 C18.761,19 21,16.761 21,14 C21,11.239 18.761,9 16,9 Z" fill="#FFFFFF" fill-rule="nonzero"/>
        <path d="M16,22 C20.418278,22 24,25.581722 24,30 L8,30 C8,25.581722 11.581722,22 16,22 Z" fill="#FFFFFF"/>
    </g>
</svg>